<?xml version="1.0" encoding="UTF-8"?><svg version="1.1" viewBox="0 0 30 30" xmlns="http://www.w3.org/2000/svg" xmlns:xlink="http://www.w3.org/1999/xlink"><!--Generated by IJSVG (https://github.com/iconjar/IJSVG)--><g fill="#000"><path d="M15,26c-6.1,0 -11,-3.8 -11,-8.5c0,-0.3 0.2,-0.5 0.5,-0.5h21c0.3,0 0.5,0.2 0.5,0.5c0,4.7 -4.9,8.5 -11,8.5Zm-10,-8c0.3,3.9 4.7,7 10,7c5.3,0 9.6,-3.1 10,-7h-20Z"></path><path d="M15,30c-8.3,0 -15,-6.7 -15,-15c0,-8.3 6.7,-15 15,-15c8.3,0 15,6.7 15,15c0,8.3 -6.7,15 -15,15Zm0,-29c-7.7,0 -14,6.3 -14,14c0,7.7 6.3,14 14,14c7.7,0 14,-6.3 14,-14c0,-7.7 -6.3,-14 -14,-14Z"></path><path d="M9.5,12c-0.8,0 -1.5,-0.7 -1.5,-1.5c0,-0.8 0.7,-1.5 1.5,-1.5c0.8,0 1.5,0.7 1.5,1.5c0,0.8 -0.7,1.5 -1.5,1.5Zm0,-2c-0.3,0 -0.5,0.2 -0.5,0.5c0,0.3 0.2,0.5 0.5,0.5c0.3,0 0.5,-0.2 0.5,-0.5c0,-0.3 -0.2,-0.5 -0.5,-0.5Z"></path><path d="M20.5,12c-0.8,0 -1.5,-0.7 -1.5,-1.5c0,-0.8 0.7,-1.5 1.5,-1.5c0.8,0 1.5,0.7 1.5,1.5c0,0.8 -0.7,1.5 -1.5,1.5Zm0,-2c-0.3,0 -0.5,0.2 -0.5,0.5c0,0.3 0.2,0.5 0.5,0.5c0.3,0 0.5,-0.2 0.5,-0.5c0,-0.3 -0.2,-0.5 -0.5,-0.5Z"></path></g></svg>